<?xml version="1.0" encoding="utf-8"?>
<!-- Svg Vector Icons : http://www.onlinewebfonts.com/icon -->
<!DOCTYPE svg PUBLIC "-//W3C//DTD SVG 1.1//EN" "http://www.w3.org/Graphics/SVG/1.1/DTD/svg11.dtd">
<svg version="1.1" xmlns="http://www.w3.org/2000/svg" xmlns:xlink="http://www.w3.org/1999/xlink" x="0px" y="0px" viewBox="0 0 1000 1000" enable-background="new 0 0 1000 1000" xml:space="preserve">
<metadata> Svg Vector Icons : http://www.onlinewebfonts.com/icon </metadata>
<g><path d="M832.4,990H154.6c-0.7,0-1.3,0-2-0.1c-24.1-1.4-69.7-22.9-69.7-94.1V90.4c-1.1-10.3-2-38.3,16.1-59.3c8.3-9.6,23.5-21.1,48.8-21.1h468.7c8.9,0,17.5,3.6,23.7,9.9L906.9,292c6.2,6.3,10.6,14.7,10.6,23.5l0,587c0,3.6-1.4,22.4-11.2,41.9C891.7,973.9,867.5,990,832.4,990z M157.8,921.4l672,0.4c12.5,0,13.6-2.7,16.2-6.1c3.5-4.5,3.5-11.2,3.6-13.4V329.3L603.4,80.2l-451.5,0.2c0,2.1-0.2,815.2-0.2,815.2c0,19.3,2.6,24.3,4.2,25.7C156.3,921.6,157.4,921.2,157.8,921.4z M153.3,923.1c0.4,0,0.9,0,1.3,0h1.2C155,923.1,154.1,923.1,153.3,923.1z"/><path d="M695.2,339c-33.8,0-60.6-9.7-79.7-28.8c-26.2-26.3-26.9-59.8-26.9-63.5v-208c0-9,5.4-17.2,13.8-20.6c8.3-3.4,17.9-1.5,24.3,4.9L899,299.8c6.3,6.4,8.2,15.9,4.8,24.2c-3.4,8.3-11.5,13.7-20.5,13.8c-70.7,0.3-174.1,0.8-186.1,1C696.5,339,695.9,339,695.2,339z M633.2,246.5c0,0.8,0.6,13.3,8.1,24.9c9.7,15,27.5,22.7,52.9,22.9c0.2,0,0.5,0,0.7,0c0.4,0,1.1,0,1.9,0c1.4,0,3.6-0.1,6.2-0.1c5.3-0.1,12.8-0.1,21.8-0.2c17.9-0.1,41.9-0.2,65.8-0.4c14.6-0.1,25.9-0.1,39.1-0.2L633.2,92.7V246.5z"/><path d="M675.3,782H255.6c-19.1,0-34.5-15.5-34.5-34.5s15.5-34.5,34.5-34.5h419.7c19.1,0,34.5,15.5,34.5,34.5S694.4,782,675.3,782z"/><path d="M675.3,642.7H255.6c-19.1,0-34.5-15.5-34.5-34.5c0-19.1,15.5-34.5,34.5-34.5h419.7c19.1,0,34.5,15.5,34.5,34.5C709.8,627.3,694.4,642.7,675.3,642.7z"/><path d="M675.3,503.2H255.6c-19.1,0-34.5-15.5-34.5-34.5s15.5-34.5,34.5-34.5h419.7c19.1,0,34.5,15.5,34.5,34.5S694.4,503.2,675.3,503.2z"/></g>
</svg>