<?xml version="1.0" encoding="utf-8"?>
<!-- Svg Vector Icons : http://www.onlinewebfonts.com/icon -->
<!DOCTYPE svg PUBLIC "-//W3C//DTD SVG 1.1//EN" "http://www.w3.org/Graphics/SVG/1.1/DTD/svg11.dtd">
<svg version="1.1" xmlns="http://www.w3.org/2000/svg" xmlns:xlink="http://www.w3.org/1999/xlink" x="0px" y="0px" viewBox="0 0 1000 1000" enable-background="new 0 0 1000 1000" xml:space="preserve">
<metadata> Svg Vector Icons : http://www.onlinewebfonts.com/icon </metadata>
<g><g transform="translate(0.000000,511.000000) scale(0.100000,-0.100000)"><path d="M638.7,3597.3c-202.5-53.1-391.2-218.2-485.6-420.7L100,3064.5V105.9v-2958.7l53.1-112.1c72.7-157.3,210.3-298.8,367.6-375.5l129.8-62.9h3570.1h3570.1l155.3,78.6c184.8,94.4,292.9,216.3,367.6,414.8c27.5,74.7,320.4,861.1,648.8,1747.7c330.3,886.6,674.3,1812.6,768.7,2056.3c147.4,389.2,169.1,462,169.1,570.1c0,222.1-137.6,406.9-338.1,448.2c-55,11.8-336.2,21.6-652.7,21.6h-556.3l-11.8,133.7c-23.6,287-175,515.1-422.7,637l-131.7,64.9l-1564.8,5.9l-1566.8,5.9l-332.2,188.7c-434.5,249.7-1095,583.9-1224.8,623.2c-90.4,27.5-259.5,31.5-1236.5,29.5C1029.9,3622.8,705.5,3615,638.7,3597.3z M3337.8,3149.1c165.1-84.5,505.2-269.3,752.9-412.8l452.2-261.5l1612-9.8c1781.1-11.8,1673-2,1785-135.6c51.1-60.9,92.4-208.4,92.4-326.3v-66.8l-2893.8-5.9c-2628.4-5.9-2901.7-9.8-2964.6-37.3c-96.3-45.2-184.8-145.5-243.8-273.3c-27.5-60.9-377.5-1055.7-778.5-2211.6C750.7-1748,418.5-2697.5,414.5-2703.4c-5.9-3.9-9.8,1277.9-9.8,2850.6c0,2730.6,2,2862.3,37.4,2937.1c41.3,92.4,137.6,180.9,214.3,198.6c29.5,5.9,62.9,13.8,72.7,17.7c11.8,3.9,534.7,5.9,1163.8,3.9l1144.2-3.9L3337.8,3149.1z M9542.2,1598c102.2-35.4,98.3-57-88.5-544.6C9373.1,841.1,9037-59.3,8708.7-945.9c-794.2-2140.9-723.5-1960-813.9-2042.6c-41.3-37.3-110.1-76.7-151.4-88.5c-84.5-23.6-6951.4-27.5-7053.6-3.9c-31.5,7.9-57,21.6-55,33.4c15.7,76.7,1582.5,4562.9,1606.1,4598.2c19.7,29.5,55.1,49.2,94.4,53.1c35.4,3.9,1657.2,9.8,3603.5,11.8C8535.7,1619.6,9495,1615.7,9542.2,1598z"/></g></g>
</svg>